# Blender v2.92.0 OBJ File: 'grass.blend'
# www.blender.org
mtllib grass.mtl
o Plane
v -0.030109 0.914558 -0.008903
v 0.020510 0.914558 -0.008903
v -0.060018 0.018092 -0.001738
v 0.059608 0.018092 -0.001738
v -0.065849 0.466325 -0.074108
v 0.060844 0.466325 -0.074108
v 0.076719 0.222181 -0.053250
v -0.079222 0.222181 -0.053250
v -0.052476 0.710469 -0.047270
v 0.044969 0.710469 -0.047270
v -0.044648 0.827455 -0.026060
v -0.004953 0.944441 -0.002906
v 0.080468 0.105195 -0.026227
v -0.000052 -0.011790 0.007019
v -0.072536 0.344253 -0.070241
v 0.052906 0.588397 -0.065111
v -0.002502 0.466325 -0.074108
v 0.068782 0.344253 -0.070241
v -0.081772 0.105195 -0.026227
v -0.001251 0.222181 -0.053250
v -0.059163 0.588397 -0.065111
v 0.035941 0.827455 -0.026060
v -0.003754 0.710469 -0.047270
v -0.000634 0.101805 -0.025234
v -0.003128 0.588397 -0.065111
v -0.001877 0.344253 -0.070241
v -0.004371 0.830846 -0.025379
vt 0.000000 0.750000
vt 0.500000 0.750000
vt 0.500000 0.875000
vt 0.000000 0.875000
vt 1.000000 0.750000
vt 1.000000 0.875000
vt 1.000000 1.000000
vt 0.500000 1.000000
vt 0.000000 1.000000
vt 0.000000 0.250000
vt 0.500000 0.250000
vt 0.500000 0.375000
vt 0.000000 0.375000
vt 1.000000 0.250000
vt 1.000000 0.375000
vt 1.000000 0.500000
vt 0.500000 0.500000
vt 0.000000 0.500000
vt 0.500000 0.625000
vt 0.000000 0.625000
vt 1.000000 0.625000
vt 0.000000 0.000000
vt 0.500000 0.000000
vt 0.500000 0.125000
vt 0.000000 0.125000
vt 1.000000 0.000000
vt 1.000000 0.125000
vn 0.0013 -0.2259 -0.9742
vn -0.0013 -0.2259 -0.9741
vn -0.0024 -0.2718 -0.9623
vn 0.0024 -0.2718 -0.9623
vn 0.0000 0.1446 -0.9895
vn 0.0000 0.0735 -0.9973
vn 0.0000 -0.0317 -0.9995
vn -0.0000 -0.1379 -0.9905
vn 0.0017 0.1936 -0.9811
vn -0.0017 0.1936 -0.9811
vn -0.0007 0.1786 -0.9839
vn 0.0007 0.1786 -0.9839
usemtl Material.001
s off
f 8/1/1 20/2/1 24/3/1 19/4/1
f 20/2/2 7/5/2 13/6/2 24/3/2
f 24/3/3 13/6/3 4/7/3 14/8/3
f 19/4/4 24/3/4 14/8/4 3/9/4
f 9/10/5 23/11/5 25/12/5 21/13/5
f 23/11/5 10/14/5 16/15/5 25/12/5
f 25/12/6 16/15/6 6/16/6 17/17/6
f 21/13/6 25/12/6 17/17/6 5/18/6
f 5/18/7 17/17/7 26/19/7 15/20/7
f 17/17/7 6/16/7 18/21/7 26/19/7
f 26/19/8 18/21/8 7/5/8 20/2/8
f 15/20/8 26/19/8 20/2/8 8/1/8
f 1/22/9 12/23/9 27/24/9 11/25/9
f 12/23/10 2/26/10 22/27/10 27/24/10
f 27/24/11 22/27/11 10/14/11 23/11/11
f 11/25/12 27/24/12 23/11/12 9/10/12
